<?xml version="1.0" encoding="UTF-8"?>
<svg id="Capa_2" xmlns="http://www.w3.org/2000/svg" version="1.1" viewBox="0 0 96 77">
  <!-- Generator: Adobe Illustrator 29.2.1, SVG Export Plug-In . SVG Version: 2.1.0 Build 116)  -->
  <defs>
    <style>
      .st0 {
        fill: #707070;
      }
    </style>
  </defs>
  <g id="Capa_2-2">
    <path class="st0" d="M40,1v13.8c-8.6,4.2-17.6,9.8-18,22.1v1s1,0,1,0h17v38H1v-40.5c0-1.2,3.4-9.8,4.5-11.9C12.1,10.8,26.2,1.6,40,1M41,0C26.1.2,11.4,10,4.6,23.1c-1,1.9-4.6,10.9-4.6,12.4v41.5h41v-40h-18c.3-11.7,8.6-17,18-21.5V0h0Z"/>
    <path class="st0" d="M95,1v13.8c-9.1,4.5-17.5,10.4-18,22.1v1s1,0,1,0h17v38h-39v-39.5c0-.7,1.6-5.9,2.2-7.5C63.5,13.6,79.2,1.7,95,1M96,0c-16.8.2-33.3,13-38.8,28.7-.5,1.3-2.2,7-2.2,7.8v40.5h41v-40h-18c.5-11.3,8.8-17,18-21.5V0h0Z"/>
  </g>
</svg>